<?xml version="1.0" encoding="UTF-8" standalone="no"?>
<!-- Created with Inkscape (http://www.inkscape.org/) -->

<svg
   width="512"
   height="512"
   viewBox="0 0 512 512"
   version="1.1"
   id="svg5"
   xml:space="preserve"
   xmlns="http://www.w3.org/2000/svg"
   xmlns:svg="http://www.w3.org/2000/svg"><defs
     id="defs2" /><g
     id="layer1"><path
       style="fill:#008080;stroke-width:0.711111"
       d="m 256,512 c -55.14228,0 -110.28456,0 -165.426839,0 -0.135461,-37.74555 -1.512213,-75.57611 0.881883,-113.26529 8.695796,-29.64843 39.475216,-44.46459 66.097786,-54.88087 47.39987,-16.98669 99.38861,-24.81082 149.01946,-13.30561 35.09205,7.63752 72.15378,18.05453 98.76104,43.4796 14.25584,10.94154 16.44773,28.93221 15.20869,45.63026 0.46086,30.77813 0.42751,61.5612 0.35619,92.34191 -54.96607,0 -109.93214,0 -164.89821,0 z m -0.71111,-229.05301 c -43.70756,0.85676 -82.25258,-39.55739 -79.5563,-83.1355 0.52382,-42.8091 40.30244,-80.09678 83.14587,-77.40846 44.0807,0.38098 81.85555,42.67216 77.15048,86.51123 -2.29968,41.03834 -39.65513,75.20191 -80.74005,74.03273 z"
       id="path189" /></g></svg>
